<svg version="1.0" xmlns="http://www.w3.org/2000/svg" width="500pt" height="500pt" viewBox="0 0 500 500"><path d="M228.4 117.8c-10.3 6.8-18.5 11.3-23.4 13.1-2.2.8-12.7 1.6-27.8 2.1-13.4.4-24.4.9-24.6 1.1s-.5 3.3-.7 6.9l-.4 6.5 5-.3c12.7-.9 39.2 4 51 9.3 1.7.7 5 2.1 7.5 3.1 2.5.9 5 2 5.5 2.5.6.4 2.7 1.6 4.8 2.8 2 1.2 5.4 3 7.4 4.2 2 1.1 6.3 3.9 9.6 6.2s6.7 4.6 7.6 5.2c.8.5 3.5 2.3 5.8 3.8 6.6 4.3 20.1 10.5 27.8 12.7 13.8 4.1 22.8 5 49.9 5h25.8l-.6-3.8c-2.1-11.9-7.4-19.6-17.9-26.1-4.6-2.8-15-6.1-19.4-6.1-1.7 0-4.3-.4-5.7-1-2.4-.9-2.6-.7-2.6 1.5 0 3-3.2 6.5-6 6.5-2.5 0-4-2.9-4-7.4 0-2.9-.4-3.6-1.9-3.6-1.1 0-2.3-.5-2.6-1-1.1-1.7-5.3-1.1-5.9.8-1.2 3.5-5.3 6.5-8 5.8-2.2-.5-2.6-1.2-2.6-4.6 0-2.1.5-4.2 1-4.5 2-1.2.9-3.2-3.1-5.8l-4.1-2.7-3.9 4c-4.1 4.2-5.7 4.8-7.7 2.8s-1.4-6.1 1.3-9.2c1.4-1.6 2.5-3.1 2.5-3.4 0-.2-1.8-2.2-4.1-4.4l-4.1-4-3.8 3.7c-4.7 4.6-8.3 4.6-8.8 0-.2-2.4.5-3.8 3.7-6.9l3.9-3.9-3.6-4.6c-2-2.6-4.6-6.4-5.7-8.4-2.9-5.5-6.1-5.1-17.1 2.1m102.7 54.3c9.8 3.2 15.9 8.1 19.3 15.7 3.2 7.1-1.6 8.9-4.9 1.9-2.9-6.1-9.3-10.8-18.5-13.7-5.6-1.7-5.5-1.6-4-3.5 1.5-1.8 3.5-1.9 8.1-.4m-179.9 3.1c.4 7.2 1.1 12.6 2.1 14.9 1.8 4.1 6.6 8.5 11.2 10.4 3.4 1.4 22.5 1.9 65 1.6l27-.1-7.5-4.3c-4.1-2.4-11-6.6-15.2-9.5s-8.1-5.2-8.7-5.2c-.5 0-1.1-.4-1.3-.9-.4-1.2-19.2-10.5-25.3-12.5-11.7-3.8-23-5.6-35.4-5.6h-12.4zm3.3 42c-3.5 15.4-2.9 24.6 2.4 35.8 3.2 6.6 12.3 16.1 18.8 19.3 11 5.6 12.3 5.7 78.8 5.7 66.9 0 69.8-.2 81.3-5.7 15.3-7.4 25.6-26.7 23.8-44.6-1.7-17.4-1.5-16.7-5-16.1-1.7.3-4.4 1-6 1.5s-5.4.9-8.3.9h-5.5l5 5.4c4.7 5.2 5.8 7.7 6.8 15.5.1 1.3-.6 5.2-1.7 8.6-3.1 10.2-10.7 16.5-21.4 17.9-2.7.3-34.2.6-70 .7-71.1.1-68.8.3-77.7-5.9-7.8-5.3-11.2-14.6-9.3-25.2 1-5.8 2-7.8 6.3-11.8 1.9-1.8 3.3-3.4 3.1-3.5-.2-.2-3.1-.9-6.4-1.6-3.3-.8-7.2-2-8.7-2.7-1.5-.8-3.1-1.4-3.7-1.4-.5 0-1.7 3.3-2.6 7.2"/><path d="M204 215.1c-2.5.3-4 .7-3.4.7.7.1 3 1.9 5.2 4.1 2.8 2.7 4.6 5.8 6.2 10.5 1.2 3.6 2.4 6.6 2.6 6.6.3 0 2.2-1.2 4.1-2.8l3.6-2.7 34.1-.3 34-.3 4.2 3.1c2.4 1.7 4.5 2.7 4.7 2.3.3-.5.8-2.9 1.2-5.5.8-5.3 5.8-11.3 11.9-14.2 2-.9 3.6-1.9 3.6-2.1 0-.6-107-.1-112 .6m-19 6.2c-4.9 1.6-7.3 3.6-9.9 7.7-2.6 4.3-2.7 11.1-.3 16 3.3 6.6 13.5 11.4 20.6 9.6 4.4-1.1 9.3-6.3 11.1-11.7 2.1-6.3.8-12.1-3.9-17.1-5.3-5.7-10.2-6.9-17.6-4.5m10.6 12.5c5.1 6.6-4.1 13.8-10.3 8-3-2.8-2.9-5.3.3-8.5 2-2 3.2-2.4 5.6-1.9 1.7.3 3.7 1.4 4.4 2.4M316 222.3c-8.3 4.4-11 8.3-11 16.2 0 6.5 3.2 11.9 8.5 14.5 5.2 2.5 9.5 2.5 14.4 0 7.9-4 12.4-12.8 10.6-20.8-.7-3.5-5.5-8.9-9.1-10.2-3.6-1.4-10.5-1.2-13.4.3m11.6 11.4c2 2.6 1.7 5.4-.8 8-2.7 2.9-7.1 3-9.8.3-2.6-2.6-2.5-6 .1-8.9 1.8-1.9 2.9-2.2 5.6-1.8 2 .4 4.1 1.4 4.9 2.4"/></svg>